<?xml version="1.0" encoding="UTF-8" standalone="no"?>
<!-- Created with Inkscape (http://www.inkscape.org/) -->

<svg
   version="1.1"
   id="svg48"
   width="454.52182"
   height="396.11856"
   viewBox="0 0 454.52182 396.11856"
   sodipodi:docname="5165392.eps"
   xmlns:inkscape="http://www.inkscape.org/namespaces/inkscape"
   xmlns:sodipodi="http://sodipodi.sourceforge.net/DTD/sodipodi-0.dtd"
   xmlns="http://www.w3.org/2000/svg"
   xmlns:svg="http://www.w3.org/2000/svg">
  <defs
     id="defs52" />
  <sodipodi:namedview
     id="namedview50"
     pagecolor="#ffffff"
     bordercolor="#000000"
     borderopacity="0.25"
     inkscape:showpageshadow="2"
     inkscape:pageopacity="0.0"
     inkscape:pagecheckerboard="0"
     inkscape:deskcolor="#d1d1d1"
     showgrid="false" />
  <g
     id="g56"
     inkscape:groupmode="layer"
     inkscape:label="Page 1"
     transform="matrix(1.3333333,0,0,-1.3333333,-76.622536,501.23465)">
    <g
       id="g898">
      <path
         d="m 121.513,351.708 c 20.574,14.672 83.325,26.934 95.973,7.625 11.383,-17.377 -17.342,-45.867 -52.632,-45.867 -55.303,0 -61.477,25.31 -43.341,38.242"
         style="fill:#f0e9f6;fill-opacity:1;fill-rule:nonzero;stroke:none;stroke-width:0.1"
         id="path78" />
      <path
         d="m 105.085,293.313 c 29.221,1.376 52.299,-19.755 116.018,15.211 63.719,34.966 117.074,60.133 152.455,6.119 31.843,-48.61 -48.511,-128.308 -147.23,-128.308 -154.7042,0 -183.4811,104.046 -121.243,106.978"
         style="fill:#f0e9f6;fill-opacity:1;fill-rule:nonzero;stroke:none;stroke-width:0.1"
         id="path80" />
      <path
         d="m 171.414,254.064 6.602,2.301 -6.849,2.386 c -1.21,0.422 -2.16,1.372 -2.581,2.581 l -2.387,6.85 -2.387,-6.85 c -0.421,-1.209 -1.371,-2.159 -2.581,-2.581 l -6.849,-2.386 6.602,-2.301 c 1.365,-0.475 2.439,-1.549 2.915,-2.914 l 2.3,-6.602 2.3,6.602 c 0.476,1.365 1.55,2.439 2.915,2.914"
         style="fill:#bacded;fill-opacity:1;fill-rule:nonzero;stroke:none;stroke-width:0.1"
         id="path82" />
      <path
         d="m 109.827,313.18 4.201,1.463 -4.359,1.519 c -0.769,0.268 -1.374,0.873 -1.642,1.643 l -1.518,4.358 -1.519,-4.358 c -0.268,-0.77 -0.873,-1.375 -1.642,-1.643 l -4.3589,-1.519 4.2009,-1.463 c 0.869,-0.303 1.552,-0.986 1.855,-1.854 l 1.464,-4.202 1.464,4.202 c 0.302,0.868 0.985,1.551 1.854,1.854"
         style="fill:#bacded;fill-opacity:1;fill-rule:nonzero;stroke:none;stroke-width:0.1"
         id="path84" />
      <path
         d="m 352.958,238.769 5.987,2.086 -6.211,2.164 c -1.096,0.382 -1.958,1.244 -2.34,2.34 l -2.164,6.211 -2.164,-6.211 c -0.382,-1.096 -1.244,-1.958 -2.341,-2.34 l -6.21,-2.164 5.986,-2.086 c 1.239,-0.431 2.212,-1.404 2.643,-2.642 l 2.086,-5.987 2.086,5.987 c 0.431,1.238 1.405,2.211 2.642,2.642"
         style="fill:#bacded;fill-opacity:1;fill-rule:nonzero;stroke:none;stroke-width:0.1"
         id="path86" />
      <path
         d="m 178.379,363.125 5.987,2.086 -6.211,2.164 c -1.096,0.382 -1.958,1.244 -2.34,2.34 l -2.164,6.211 -2.164,-6.211 c -0.382,-1.096 -1.244,-1.958 -2.34,-2.34 l -6.211,-2.164 5.987,-2.086 c 1.238,-0.431 2.211,-1.404 2.642,-2.642 l 2.086,-5.987 2.086,5.987 c 0.431,1.238 1.404,2.211 2.642,2.642"
         style="fill:#bacded;fill-opacity:1;fill-rule:nonzero;stroke:none;stroke-width:0.1"
         id="path88" />
      <path
         d="m 340.927,339.218 7.145,2.49 -7.413,2.582 c -1.309,0.456 -2.337,1.485 -2.793,2.793 l -2.583,7.413 -2.582,-7.413 c -0.456,-1.308 -1.485,-2.337 -2.793,-2.793 l -7.413,-2.582 7.145,-2.49 c 1.478,-0.515 2.639,-1.676 3.154,-3.154 l 2.489,-7.145 2.49,7.145 c 0.514,1.478 1.676,2.639 3.154,3.154"
         style="fill:#bacded;fill-opacity:1;fill-rule:nonzero;stroke:none;stroke-width:0.1"
         id="path90" />
      <path
         d="m 85.1566,128.406 c 0,0 -19.9179,7.377 -26.0039,17.151 -6.0859,9.775 5.7172,10.329 13.002,6.456 7.2848,-3.874 15.0308,1.659 2.8586,11.618 -12.1723,9.959 -17.7047,25.266 -9.2215,25.82 8.484,0.553 22.1312,-14.938 23.2379,-7.931 1.1062,7.008 -8.1149,26.189 1.4754,29.14 9.5899,2.95 10.1439,-24.16 17.5209,-23.422 7.377,0.737 9.036,16.782 18.258,9.959 9.221,-6.824 -8.484,-33.566 -3.873,-37.255 4.61,-3.688 14.016,14.017 18.996,4.98 4.979,-9.036 -18.996,-36.516 -18.996,-36.516 H 85.1566"
         style="fill:#9c8acd;fill-opacity:1;fill-rule:nonzero;stroke:none;stroke-width:0.1"
         id="path92" />
      <path
         d="m 183.351,141.92 c 0,0 1.151,8.748 11.881,13.206 10.729,4.459 15.906,-2.946 21.513,1.18 5.608,4.126 14.652,9.31 29.066,6.86 14.414,-2.451 20.347,-13.066 28.403,-10.444 8.056,2.624 17.1,-3.716 18.231,-9.167 L 183.351,141.92"
         style="fill:#bacded;fill-opacity:1;fill-rule:nonzero;stroke:none;stroke-width:0.1"
         id="path94" />
      <path
         d="m 347.704,139.708 c 0,0 -17.592,6.515 -22.967,15.148 -5.375,8.633 5.049,9.122 11.483,5.701 6.434,-3.419 13.275,1.466 2.525,10.262 -10.75,8.796 -15.637,22.316 -8.144,22.805 7.493,0.488 19.546,-13.194 20.523,-7.005 0.977,6.19 -7.167,23.13 1.304,25.736 8.469,2.607 8.958,-21.338 15.474,-20.686 6.515,0.651 7.981,14.822 16.126,8.796 8.143,-6.027 -7.493,-29.646 -3.421,-32.904 4.072,-3.257 12.379,12.38 16.777,4.399 4.398,-7.982 -16.777,-32.252 -16.777,-32.252 h -32.903"
         style="fill:#bacded;fill-opacity:1;fill-rule:nonzero;stroke:none;stroke-width:0.1"
         id="path96" />
      <path
         d="m 126.826,140.967 c 0,0 -37.7311,0.212 -41.5463,-18.848 -3.8156,-19.06 46.6333,-16.516 76.3093,-20.331 29.676,-3.8161 42.024,-24.165 93.293,-22.8939 51.27,1.2731 50.147,14.8379 73.813,17.3821 23.666,2.5437 66.06,10.0978 69.452,27.7298 3.391,17.632 -34.397,17.924 -87.822,19.256 -53.427,1.331 -183.499,-2.295 -183.499,-2.295"
         style="fill:#f0e9f6;fill-opacity:1;fill-rule:nonzero;stroke:none;stroke-width:0.1"
         id="path98" />
      <path
         d="m 102.164,217.252 -1.735,5.543 -9.1032,-2.85 1.9094,-6.099 C 76.4828,203.108 79.5648,178.391 91.868,170.271 c 14.131,-9.326 27.415,-3.84 27.415,-3.84 l -17.119,50.821"
         style="fill:#4f5bb3;fill-opacity:1;fill-rule:nonzero;stroke:none;stroke-width:0.1"
         id="path100" />
      <path
         d="M 176.568,166.485 H 99.6934 l 7.4046,-32.394 c 0.463,-2.028 2.266,-3.464 4.345,-3.464 h 56.734 c 2.461,0 4.457,1.995 4.457,4.457 v 25.066 h 3.934 v 6.335"
         style="fill:#5d66b9;fill-opacity:1;fill-rule:nonzero;stroke:none;stroke-width:0.1"
         id="path102" />
      <path
         d="M 168.371,159.655 H 110.08"
         style="fill:none;stroke:#4f5bb3;stroke-width:1;stroke-linecap:butt;stroke-linejoin:miter;stroke-miterlimit:10;stroke-dasharray:none;stroke-opacity:1"
         id="path104" />
      <path
         d="M 94.6063,212.352 108.596,170.748"
         style="fill:none;stroke:#5d66b9;stroke-width:1;stroke-linecap:round;stroke-linejoin:round;stroke-miterlimit:10;stroke-dasharray:none;stroke-opacity:1"
         id="path106" />
      <path
         d="m 286.651,89.0691 c 0,0 -10.599,0 -12.295,6.995 -1.695,6.9949 12.295,1.0597 12.295,1.0597 0,0 -4.028,13.5182 2.967,14.0722 6.995,0.554 6.359,-12.3761 6.359,-12.3761 0,0 4.875,7.6311 9.539,4.8751 4.663,-2.756 -6.571,-14.6259 -6.571,-14.6259 h -12.294"
         style="fill:#9c8acd;fill-opacity:1;fill-rule:nonzero;stroke:none;stroke-width:0.1"
         id="path108" />
      <path
         d="m 137.424,113.279 c 0,0 -15.898,7.162 -11.976,13.086 4.895,7.396 13.744,-3.566 13.744,-3.566 0,0 -4.76,15.977 3.507,16.631 8.267,0.655 7.516,-14.627 7.516,-14.627 0,0 5.761,9.018 11.273,5.762 5.511,-3.257 -7.766,-17.286 -7.766,-17.286 h -16.298"
         style="fill:#bacded;fill-opacity:1;fill-rule:nonzero;stroke:none;stroke-width:0.1"
         id="path110" />
      <path
         d="m 149.964,174.666 v 0 c -4.097,-0.365 -7.715,2.661 -8.079,6.759 l -0.789,8.865 14.838,1.321 0.789,-8.866 c 0.365,-4.098 -2.661,-7.715 -6.759,-8.079"
         style="fill:#9c8acd;fill-opacity:1;fill-rule:nonzero;stroke:none;stroke-width:0.1"
         id="path112" />
      <path
         d="m 171.816,214.597 c 1.239,-13.922 -9.042,-26.211 -22.963,-27.452 -13.921,-1.239 -26.211,9.042 -27.45,22.963 -1.24,13.921 9.041,26.211 22.963,27.45 13.92,1.24 26.211,-9.041 27.45,-22.961"
         style="fill:#f8a347;fill-opacity:1;fill-rule:nonzero;stroke:none;stroke-width:0.1"
         id="path114" />
      <path
         d="m 144.49,188.271 -4.91,13.94 c -0.321,0.914 0.572,1.786 1.478,1.443 l 1.374,-0.52 c 0.561,-0.213 1.191,0.046 1.439,0.593 v 0 c 0.311,0.685 1.189,0.885 1.766,0.404 l 0.019,-0.015 c 0.513,-0.428 1.281,-0.324 1.663,0.224 l 0.048,0.067 c 0.434,0.623 1.344,0.655 1.82,0.065 l 0.118,-0.147 c 0.387,-0.48 1.086,-0.564 1.577,-0.19 l 1.323,1.008 c 0.773,0.59 1.882,0.003 1.828,-0.967 l -0.827,-14.951"
         style="fill:none;stroke:#4f5bb3;stroke-width:1;stroke-linecap:round;stroke-linejoin:round;stroke-miterlimit:10;stroke-dasharray:none;stroke-opacity:1"
         id="path116" />
      <path
         d="m 145.196,234.056 c 0,0 14.874,0.283 21.003,-12.435"
         style="fill:none;stroke:#ffffff;stroke-width:1;stroke-linecap:round;stroke-linejoin:round;stroke-miterlimit:10;stroke-dasharray:none;stroke-opacity:1"
         id="path118" />
      <path
         d="m 168.16,211.87 c 0,0 0.394,4.16 -1.061,7.49"
         style="fill:none;stroke:#ffffff;stroke-width:1;stroke-linecap:round;stroke-linejoin:round;stroke-miterlimit:10;stroke-dasharray:none;stroke-opacity:1"
         id="path120" />
      <path
         d="m 141.571,184.948 c 0,0 7.811,-1.115 14.833,1.387"
         style="fill:none;stroke:#4f5bb3;stroke-width:1;stroke-linecap:round;stroke-linejoin:round;stroke-miterlimit:10;stroke-dasharray:none;stroke-opacity:1"
         id="path122" />
      <path
         d="m 141.965,180.651 c 0,0 7.81,-1.115 14.832,1.387"
         style="fill:none;stroke:#4f5bb3;stroke-width:1;stroke-linecap:round;stroke-linejoin:round;stroke-miterlimit:10;stroke-dasharray:none;stroke-opacity:1"
         id="path124" />
      <path
         d="m 106.12,228.749 -2.667,-0.835 c -2.504,-0.784 -5.1686,0.609 -5.9522,3.113 l -2.6121,8.344 11.7323,3.674 2.613,-8.345 c 0.783,-2.503 -0.611,-5.168 -3.114,-5.951"
         style="fill:#9c8acd;fill-opacity:1;fill-rule:nonzero;stroke:none;stroke-width:0.1"
         id="path126" />
      <path
         d="m 115.388,264.37 c 3.446,-11.007 -2.684,-22.725 -13.691,-26.171 -11.0075,-3.446 -22.7251,2.684 -26.1712,13.691 -3.4461,11.008 2.6832,22.725 13.691,26.171 11.0072,3.446 22.7242,-2.683 26.1712,-13.691"
         style="fill:#f8a347;fill-opacity:1;fill-rule:nonzero;stroke:none;stroke-width:0.1"
         id="path128" />
      <path
         d="m 97.9805,238.34 -6.4086,10.378 c -0.4207,0.679 0.1461,1.54 0.9375,1.423 l 1.1992,-0.178 c 0.4894,-0.073 0.9523,0.247 1.0562,0.731 v 0 c 0.1305,0.607 0.8028,0.923 1.3532,0.636 l 0.0175,-0.009 c 0.4887,-0.255 1.0907,-0.036 1.302,0.473 l 0.0262,0.063 c 0.241,0.578 0.9687,0.764 1.457,0.371 l 0.1207,-0.097 c 0.3965,-0.319 0.9756,-0.264 1.3056,0.124 l 0.889,1.047 c 0.52,0.61 1.517,0.332 1.644,-0.46 l 1.961,-12.201"
         style="fill:none;stroke:#4f5bb3;stroke-width:1;stroke-linecap:round;stroke-linejoin:round;stroke-miterlimit:10;stroke-dasharray:none;stroke-opacity:1"
         id="path130" />
      <path
         d="m 90.5023,275.383 c 0,0 11.9437,2.842 19.1217,-6.336"
         style="fill:none;stroke:#ffffff;stroke-width:1;stroke-linecap:round;stroke-linejoin:round;stroke-miterlimit:10;stroke-dasharray:none;stroke-opacity:1"
         id="path132" />
      <path
         d="m 112.918,261.53 c 0,0 -0.413,3.423 -2.171,5.853"
         style="fill:none;stroke:#ffffff;stroke-width:1;stroke-linecap:round;stroke-linejoin:round;stroke-miterlimit:10;stroke-dasharray:none;stroke-opacity:1"
         id="path134" />
      <path
         d="m 96.2109,235.147 c 0,0 6.4941,0.474 11.7171,3.725"
         style="fill:none;stroke:#4f5bb3;stroke-width:1;stroke-linecap:round;stroke-linejoin:round;stroke-miterlimit:10;stroke-dasharray:none;stroke-opacity:1"
         id="path136" />
      <path
         d="m 97.2836,231.752 c 0,0 6.4944,0.473 11.7164,3.725"
         style="fill:none;stroke:#4f5bb3;stroke-width:1;stroke-linecap:round;stroke-linejoin:round;stroke-miterlimit:10;stroke-dasharray:none;stroke-opacity:1"
         id="path138" />
      <path
         d="m 130.635,268.547 v 0 c -2.18,0.273 -3.726,2.26 -3.453,4.441 l 0.589,4.716 7.894,-0.986 -0.589,-4.717 c -0.273,-2.18 -2.261,-3.726 -4.441,-3.454"
         style="fill:#9c8acd;fill-opacity:1;fill-rule:nonzero;stroke:none;stroke-width:0.1"
         id="path140" />
      <path
         d="m 146.551,286.921 c -0.926,-7.407 -7.68,-12.66 -15.086,-11.734 -7.406,0.926 -12.659,7.68 -11.734,15.086 0.926,7.406 7.68,12.659 15.086,11.734 7.407,-0.926 12.66,-7.681 11.734,-15.086"
         style="fill:#f8a347;fill-opacity:1;fill-rule:nonzero;stroke:none;stroke-width:0.1"
         id="path142" />
      <path
         d="m 129.314,276.267 -0.987,7.83 c -0.065,0.514 0.5,0.868 0.934,0.587 l 0.658,-0.427 c 0.269,-0.174 0.627,-0.11 0.819,0.147 v 0 c 0.239,0.322 0.72,0.328 0.967,0.011 l 0.008,-0.01 c 0.219,-0.281 0.632,-0.313 0.893,-0.071 l 0.033,0.031 c 0.297,0.275 0.775,0.189 0.958,-0.173 l 0.044,-0.09 c 0.148,-0.294 0.504,-0.417 0.802,-0.277 l 0.805,0.377 c 0.47,0.221 0.982,-0.211 0.844,-0.711 l -2.12,-7.71"
         style="fill:none;stroke:#4f5bb3;stroke-width:1;stroke-linecap:round;stroke-linejoin:round;stroke-miterlimit:10;stroke-dasharray:none;stroke-opacity:1"
         id="path144" />
      <path
         d="m 134.855,300.085 c 0,0 7.795,-1.533 9.558,-8.863"
         style="fill:none;stroke:#ffffff;stroke-width:1;stroke-linecap:round;stroke-linejoin:round;stroke-miterlimit:10;stroke-dasharray:none;stroke-opacity:1"
         id="path146" />
      <path
         d="m 144.335,285.911 c 0,0 0.675,2.126 0.293,4.029"
         style="fill:none;stroke:#ffffff;stroke-width:1;stroke-linecap:round;stroke-linejoin:round;stroke-miterlimit:10;stroke-dasharray:none;stroke-opacity:1"
         id="path148" />
      <path
         d="m 127.416,274.863 c 0,0 3.951,-1.465 7.898,-0.953"
         style="fill:none;stroke:#4f5bb3;stroke-width:1;stroke-linecap:round;stroke-linejoin:round;stroke-miterlimit:10;stroke-dasharray:none;stroke-opacity:1"
         id="path150" />
      <path
         d="m 127.136,272.576 c 0,0 3.951,-1.465 7.899,-0.953"
         style="fill:none;stroke:#4f5bb3;stroke-width:1;stroke-linecap:round;stroke-linejoin:round;stroke-miterlimit:10;stroke-dasharray:none;stroke-opacity:1"
         id="path152" />
      <path
         d="m 232.337,332.122 c 0,0 0.974,6.721 -3.214,10.519 -4.188,3.798 -21.816,-5.454 -22.79,-10.519 0,0 1.029,-3.386 3.139,-7.054 -0.431,-0.625 -1.131,-1.81 -0.656,-2.337 0.433,-0.481 1.654,-0.472 2.441,-0.409 0.608,-0.829 1.267,-1.634 1.991,-2.373 4.675,-4.773 8.96,-3.604 10.908,-1.948 1.948,1.655 2.24,2.727 2.24,2.727 l 3.701,-2.727 6.525,9.933 -4.285,4.188"
         style="fill:#f57ca0;fill-opacity:1;fill-rule:nonzero;stroke:none;stroke-width:0.1"
         id="path154" />
      <path
         d="m 272.89,330.496 -7.266,-5.463 -26.494,35.237 7.265,5.463 26.495,-35.237"
         style="fill:#fddc3b;fill-opacity:1;fill-rule:nonzero;stroke:none;stroke-width:0.1"
         id="path156" />
      <path
         d="m 241.695,356.858 2.66,1.999"
         style="fill:none;stroke:#f79030;stroke-width:1;stroke-linecap:butt;stroke-linejoin:miter;stroke-miterlimit:10;stroke-dasharray:none;stroke-opacity:1"
         id="path158" />
      <path
         d="m 243.48,354.483 1.784,1.342"
         style="fill:none;stroke:#f79030;stroke-width:1;stroke-linecap:butt;stroke-linejoin:miter;stroke-miterlimit:10;stroke-dasharray:none;stroke-opacity:1"
         id="path160" />
      <path
         d="m 245.061,352.382 2.659,2"
         style="fill:none;stroke:#f79030;stroke-width:1;stroke-linecap:butt;stroke-linejoin:miter;stroke-miterlimit:10;stroke-dasharray:none;stroke-opacity:1"
         id="path162" />
      <path
         d="m 246.846,350.008 1.784,1.341"
         style="fill:none;stroke:#f79030;stroke-width:1;stroke-linecap:butt;stroke-linejoin:miter;stroke-miterlimit:10;stroke-dasharray:none;stroke-opacity:1"
         id="path164" />
      <path
         d="m 248.426,347.906 2.66,2"
         style="fill:none;stroke:#f79030;stroke-width:1;stroke-linecap:butt;stroke-linejoin:miter;stroke-miterlimit:10;stroke-dasharray:none;stroke-opacity:1"
         id="path166" />
      <path
         d="m 250.211,345.532 1.784,1.341"
         style="fill:none;stroke:#f79030;stroke-width:1;stroke-linecap:butt;stroke-linejoin:miter;stroke-miterlimit:10;stroke-dasharray:none;stroke-opacity:1"
         id="path168" />
      <path
         d="m 251.792,343.43 2.659,2"
         style="fill:none;stroke:#f79030;stroke-width:1;stroke-linecap:butt;stroke-linejoin:miter;stroke-miterlimit:10;stroke-dasharray:none;stroke-opacity:1"
         id="path170" />
      <path
         d="m 253.577,341.055 1.784,1.342"
         style="fill:none;stroke:#f79030;stroke-width:1;stroke-linecap:butt;stroke-linejoin:miter;stroke-miterlimit:10;stroke-dasharray:none;stroke-opacity:1"
         id="path172" />
      <path
         d="m 260.792,331.169 -4.277,25.457 c -0.582,3.463 1.753,6.741 5.215,7.323 l 16.052,2.697 c 3.462,0.582 6.741,-1.754 7.323,-5.216 l 4.277,-25.457 c 0.582,-3.463 -1.754,-6.741 -5.216,-7.323 l -16.051,-2.697 c -3.462,-0.582 -6.741,1.753 -7.323,5.216"
         style="fill:#768bcf;fill-opacity:1;fill-rule:nonzero;stroke:none;stroke-width:0.1"
         id="path174" />
      <path
         d="m 284.279,332.042 -17.379,-2.92 c -1.284,-0.215 -2.5,0.65 -2.716,1.934 l -4.5,26.786 c -0.216,1.283 0.65,2.499 1.934,2.714 l 17.379,2.921 c 1.284,0.216 2.499,-0.651 2.715,-1.934 l 4.501,-26.786 c 0.215,-1.284 -0.651,-2.499 -1.934,-2.715"
         style="fill:#4f5bb3;fill-opacity:1;fill-rule:nonzero;stroke:none;stroke-width:0.1"
         id="path176" />
      <path
         d="m 312.079,291.319 -27.42,-20.618 -35.79,47.599 c -4.198,5.583 -3.075,13.512 2.508,17.71 l 4.462,3.355 c 12.016,9.034 29.08,6.618 38.114,-5.397 l 20.336,-27.046 c 3.698,-4.919 2.709,-11.905 -2.21,-15.603"
         style="fill:#f8a347;fill-opacity:1;fill-rule:nonzero;stroke:none;stroke-width:0.1"
         id="path178" />
      <path
         d="m 302.317,289.827 -9.98,-7.503 c -3.101,-2.332 -7.504,-1.708 -9.836,1.392 l -11.223,14.927 c -2.332,3.101 -1.708,7.504 1.392,9.835 l 9.98,7.505 c 3.101,2.331 7.504,1.707 9.836,-1.393 l 11.223,-14.927 c 2.332,-3.101 1.708,-7.504 -1.392,-9.836"
         style="fill:#735a4f;fill-opacity:1;fill-rule:nonzero;stroke:none;stroke-width:0.1"
         id="path180" />
      <path
         d="m 272.288,301.693 12.437,2.69 4.793,10.265"
         style="fill:none;stroke:#94796b;stroke-width:1;stroke-linecap:round;stroke-linejoin:round;stroke-miterlimit:10;stroke-dasharray:none;stroke-opacity:1"
         id="path182" />
      <path
         d="m 268.329,342.826 12.76,-16.969 9.238,6.946"
         style="fill:none;stroke:#735a4f;stroke-width:1;stroke-linecap:round;stroke-linejoin:round;stroke-miterlimit:10;stroke-dasharray:none;stroke-opacity:1"
         id="path184" />
      <path
         d="m 211.898,122.192 c 0,0 32.055,9.382 61.782,8.953 4.558,-0.065 11.663,-2.943 33.515,-1.741 21.851,1.203 61.53,0.486 66.36,-5.474 4.829,-5.961 -60.297,-16.791 -167.222,-11.565 -23.279,1.138 -11.928,10.087 5.565,9.827"
         style="fill:#d9d0ec;fill-opacity:1;fill-rule:nonzero;stroke:none;stroke-width:0.1"
         id="path186" />
      <path
         d="m 202.767,283.358 c 0,0 -1.111,4.742 -3.849,7.246 -2.738,2.503 -4.725,4.258 -5.917,3.615 -1.193,-0.644 0.666,-3.601 1.718,-5.52 l -5.453,-0.966 c 0,0 3.134,-5.286 6.657,-6.173 3.522,-0.887 6.844,1.798 6.844,1.798"
         style="fill:#f4678d;fill-opacity:1;fill-rule:nonzero;stroke:none;stroke-width:0.1"
         id="path188" />
      <path
         d="m 185.815,317.966 c -4.371,5.678 -12.519,6.738 -18.197,2.366 -5.679,-4.371 -6.739,-12.519 -2.367,-18.197 3.828,-4.974 10.554,-6.403 15.98,-3.745 l 1.365,-1.773 c 0.325,-0.422 0.93,-0.5 1.352,-0.176 l 2.588,1.993 c 0.422,0.325 0.501,0.93 0.176,1.352 l -1.364,1.773 c 3.958,4.566 4.296,11.433 0.467,16.407"
         style="fill:#4f5bb3;fill-opacity:1;fill-rule:nonzero;stroke:none;stroke-width:0.1"
         id="path190" />
      <path
         d="m 184,304.97 c -0.184,-0.308 -0.389,-0.604 -0.605,-0.892 -0.512,-0.686 -1.136,-1.311 -1.843,-1.854 -4.313,-3.318 -10.51,-2.509 -13.839,1.803 -1.25,1.629 -1.916,3.514 -2.029,5.419 -0.03,0.359 -0.03,0.717 0,1.076 0.123,2.643 1.291,5.214 3.442,7.017 0.123,0.122 0.256,0.225 0.39,0.328 0.174,0.133 0.348,0.266 0.532,0.368 4.272,2.889 10.111,1.977 13.307,-2.161 0.573,-0.748 1.024,-1.547 1.352,-2.387 0.143,-0.359 0.266,-0.717 0.358,-1.086 0.697,-2.581 0.307,-5.347 -1.065,-7.631"
         style="fill:#768bcf;fill-opacity:1;fill-rule:nonzero;stroke:none;stroke-width:0.1"
         id="path192" />
      <path
         d="m 196.224,285.392 -2.146,-1.651 -9.909,12.871 2.146,1.651 9.909,-12.871"
         style="fill:#768bcf;fill-opacity:1;fill-rule:nonzero;stroke:none;stroke-width:0.1"
         id="path194" />
      <path
         d="m 198.978,281.235 -1.585,-1.221 c -0.699,-0.538 -1.702,-0.408 -2.24,0.291 l -3.305,4.294 c -0.539,0.699 -0.408,1.702 0.291,2.24 l 1.585,1.22 c 0.699,0.538 1.702,0.408 2.24,-0.291 l 3.306,-4.294 c 0.538,-0.699 0.408,-1.701 -0.292,-2.239"
         style="fill:#4f5bb3;fill-opacity:1;fill-rule:nonzero;stroke:none;stroke-width:0.1"
         id="path196" />
      <path
         d="m 185.065,312.601 c -0.051,-0.02 -0.092,-0.03 -0.143,-0.03 -0.052,0 -0.102,0.01 -0.154,0.02 l -15.406,4.794 c -0.103,0.031 -0.174,0.082 -0.236,0.154 0.123,0.122 0.256,0.225 0.39,0.328 0.174,0.133 0.348,0.266 0.532,0.368 l 14.659,-4.548 c 0.143,-0.359 0.266,-0.717 0.358,-1.086"
         style="fill:#a0b5e2;fill-opacity:1;fill-rule:nonzero;stroke:none;stroke-width:0.1"
         id="path198" />
      <path
         d="m 184,304.97 c -0.184,-0.308 -0.389,-0.604 -0.605,-0.892 l -17.711,5.368 c -0.03,0.359 -0.03,0.717 0,1.076 L 184,304.97"
         style="fill:#a0b5e2;fill-opacity:1;fill-rule:nonzero;stroke:none;stroke-width:0.1"
         id="path200" />
      <path
         d="m 222.55,283.183 -0.809,-6.12 -18.974,6.295 -0.001,-0.002 v 0 c -2.581,0.86 -6.648,-0.768 -6.648,-0.768 0,0 2.53,4.189 1.035,4.496 -1.383,0.298 -3.585,-1.987 -3.883,-2.294 0.328,0.533 3.719,6.003 1.619,5.931 -2.059,-0.072 -4.405,-3.053 -4.692,-3.421 1.639,2.847 3.043,6.617 1.117,6.31 -1.659,-0.266 -4.477,-4.221 -5.255,-5.358 -0.133,-0.195 -0.205,-0.307 -0.205,-0.307 -0.655,2.315 -1.219,3.647 -1.731,4.354 -0.136,-0.226 -0.262,-0.454 -0.378,-0.682 -1.366,-2.676 -2.023,-5.81 -1.169,-8.69 0.453,-1.527 1.529,-2.814 2.08,-3.454 1.881,-2.207 11.42,-7.873 11.552,-7.952 3.622,-2.367 27.235,-17.507 35.576,-15.316 9.043,2.375 11.943,23.027 11.943,23.027 0,0 -10.218,4.144 -21.177,3.951"
         style="fill:#f57ca0;fill-opacity:1;fill-rule:nonzero;stroke:none;stroke-width:0.1"
         id="path202" />
      <path
         d="m 226.359,299.691 -4.881,-18.31 15.144,-3.311 z"
         style="fill:#4f5bb3;fill-opacity:1;fill-rule:nonzero;stroke:none;stroke-width:0.1"
         id="path204" />
      <path
         d="m 340.481,167.818 c 0,-3.728 -1.075,-7.498 -3.329,-10.838 -5.491,-8.164 -16.246,-11.062 -25.199,-6.822 -1.291,0.615 -2.623,1.271 -3.965,1.957 -5.767,2.96 -11.882,6.597 -17.055,10.817 -3.442,2.807 -6.454,5.87 -8.677,9.158 -11.728,17.363 -14.013,39.541 -14.013,39.541 0,0 28.672,33.117 40.073,23.467 3.083,-2.601 5.101,-6.833 6.392,-11.616 2.254,-8.318 2.336,-18.315 2.11,-24.37 -0.133,-3.339 -0.348,-5.479 -0.348,-5.479 l 4.231,-2.644 10.52,-6.565 c 5.347,-3.34 8.523,-8.769 9.137,-14.516 0.082,-0.696 0.123,-1.393 0.123,-2.09"
         style="fill:#f8a347;fill-opacity:1;fill-rule:nonzero;stroke:none;stroke-width:0.1"
         id="path206" />
      <path
         d="m 310.6,229.331 c -3.851,-9.219 -13.644,-17.178 -23.703,-23.304 -8.298,-5.06 -16.779,-8.871 -22.218,-11.104 -3.606,-1.475 -5.88,-2.264 -5.88,-2.264 l 4.312,-23.059 0.256,-1.362 c 1.414,-7.559 -1.239,-14.791 -6.289,-19.708 -3.995,-3.903 -9.506,-6.341 -15.683,-6.341 -5.132,0 -9.937,1.721 -13.757,4.671 -3.831,2.94 -6.689,7.119 -7.929,12.026 -0.02,0.092 -0.051,0.184 -0.072,0.287 -1.69,6.689 -3.534,14.628 -5.009,22.465 -2.243,11.974 -3.595,23.693 -2.1,30.32 0.41,1.803 1.701,3.903 3.698,6.218 1.803,2.1 4.19,4.374 7.007,6.76 23.939,20.303 79.183,48.945 79.183,48.945 0,0 17.311,-22.67 8.184,-44.55"
         style="fill:#fcd43b;fill-opacity:1;fill-rule:nonzero;stroke:none;stroke-width:0.1"
         id="path208" />
      <path
         d="m 215.683,340.282 c 0,0 0.781,-0.944 3.117,-3.192 1.384,-1.334 2.842,-1.868 3.927,-2.073 0.768,-0.145 1.441,0.559 1.262,1.32 -0.292,1.238 -0.432,2.908 0.752,3.382 1.948,0.779 3.213,-0.649 4.48,-3.084 0.714,-1.374 0.529,-2.821 0.232,-3.82 -0.17,-0.576 0.305,-1.135 0.897,-1.033 l 1.987,0.34 c 0,0 1.607,8.23 -2.191,14.268 l -14.463,-6.108"
         style="fill:#30449f;fill-opacity:1;fill-rule:nonzero;stroke:none;stroke-width:0.1"
         id="path210" />
      <path
         d="m 200.22,348.712 1.99,-10.129 c 0,0 -1.688,-4.902 -1.103,-9.48 l 33.971,18.41 c 0,0 -3.604,2.825 -6.817,3.702 0,0 -3.896,6.038 -8.474,7.791 -4.577,1.753 -18.398,-4.548 -19.567,-10.294"
         style="fill:#4f5bb3;fill-opacity:1;fill-rule:nonzero;stroke:none;stroke-width:0.1"
         id="path212" />
      <path
         d="m 203.57,338.967 23.318,11.534"
         style="fill:none;stroke:#768bcf;stroke-width:1;stroke-linecap:round;stroke-linejoin:round;stroke-miterlimit:10;stroke-dasharray:none;stroke-opacity:1"
         id="path214" />
      <path
         d="m 302.263,273.883 -45.178,-26.424 c 0,0 -31.269,40.35 -31.951,51.258 -0.681,10.908 4.182,16.853 4.182,16.853 l -1.164,3.863 c 1.946,3.027 6.926,10.608 6.926,10.608 l 6.664,-2.564 0.336,-0.127 c 0,0 3.381,0.146 7.863,-0.909 3.808,-0.89 8.408,-2.654 12.389,-6.099 2.991,-2.591 8.654,-8.899 14.799,-16.071 1.563,-1.818 3.154,-3.691 4.736,-5.572 10.308,-12.245 20.398,-24.816 20.398,-24.816"
         style="fill:#5d66b9;fill-opacity:1;fill-rule:nonzero;stroke:none;stroke-width:0.1"
         id="path216" />
      <path
         d="m 277.129,304.271 c -2.064,-4.854 -6.172,-8.69 -11.544,-10.099 -9.426,-2.472 -19.144,3.463 -21.716,13.253 -1.927,7.318 0.69,14.726 6.072,19.016 -4.482,1.055 -7.863,0.909 -7.863,0.909 l -0.336,0.127 c -4.864,-5.99 -6.881,-14.298 -4.727,-22.525 3.536,-13.453 16.917,-21.606 29.888,-18.198 6.654,1.746 11.907,6.209 14.962,11.945 -1.582,1.881 -3.173,3.754 -4.736,5.572"
         style="fill:#f8a347;fill-opacity:1;fill-rule:nonzero;stroke:none;stroke-width:0.1"
         id="path218" />
      <path
         d="m 232.808,145.483 2.688,-11.091 16.374,1.688 v 10.85 l -19.062,-1.447"
         style="fill:#fcd43b;fill-opacity:1;fill-rule:nonzero;stroke:none;stroke-width:0.1"
         id="path220" />
      <path
         d="m 230.084,141.303 c 0,0 -3.311,0.111 -3.522,-7.031 0,0 -4.169,-1.005 -6.317,-5.245 0,0 -12.781,-1.227 -13.912,-8.034 v -1.636 c 0,-1.5 1.217,-2.717 2.717,-2.717 h 45.149 c 1.397,0 2.564,1.059 2.702,2.45 0.154,1.563 0.195,3.459 -0.352,4.358 0,0 1.244,8.592 -1.47,14.395 -2.714,5.802 -9.84,0.112 -9.84,0.112 0,0 -10.949,4.4 -15.155,3.348"
         style="fill:#5d66b9;fill-opacity:1;fill-rule:nonzero;stroke:none;stroke-width:0.1"
         id="path222" />
      <path
         d="m 328.582,149.817 10.586,-4.265 8.151,14.3 -8.826,6.312 -9.911,-16.347"
         style="fill:#f8a347;fill-opacity:1;fill-rule:nonzero;stroke:none;stroke-width:0.1"
         id="path224" />
      <path
         d="m 360.321,156.313 c 0,0 -6.273,6.009 -12.572,7.172 -6.299,1.173 -5.809,-7.935 -5.809,-7.935 0,0 -9.953,-6.345 -11.544,-10.381 0,0 -2.018,-2.627 3.673,-6.954 0,0 -1.064,-2.636 -0.264,-5.89 -1.818,-0.455 -5.6,-1.618 -7.908,-3.854 -1.026,-0.994 -1.63,-2.218 -1.978,-3.415 -0.694,-2.382 1.082,-4.766 3.563,-4.766 h 3.85 11.59 0.409 l 7.418,10.934 13.249,18.528 c 1.122,1.568 0.819,3.739 -0.687,4.944 -1.025,0.82 -2.158,1.555 -2.99,1.617"
         style="fill:#5d66b9;fill-opacity:1;fill-rule:nonzero;stroke:none;stroke-width:0.1"
         id="path226" />
      <path
         d="m 209.218,120.975 c 0,0 27.594,-0.211 45.774,1.217"
         style="fill:none;stroke:#404faa;stroke-width:1;stroke-linecap:round;stroke-linejoin:round;stroke-miterlimit:10;stroke-dasharray:none;stroke-opacity:1"
         id="path228" />
      <path
         d="m 221.099,128.474 2.078,-1.818"
         style="fill:none;stroke:#404faa;stroke-width:1;stroke-linecap:round;stroke-linejoin:round;stroke-miterlimit:10;stroke-dasharray:none;stroke-opacity:1"
         id="path230" />
      <path
         d="m 223.827,131.591 2.532,-2.538"
         style="fill:none;stroke:#404faa;stroke-width:1;stroke-linecap:round;stroke-linejoin:round;stroke-miterlimit:10;stroke-dasharray:none;stroke-opacity:1"
         id="path232" />
      <path
         d="m 226.943,133.345 2.403,-1.754"
         style="fill:none;stroke:#404faa;stroke-width:1;stroke-linecap:round;stroke-linejoin:round;stroke-miterlimit:10;stroke-dasharray:none;stroke-opacity:1"
         id="path234" />
      <path
         d="m 245.642,137.175 c 0,0 3.767,-3.376 9.999,-4.707"
         style="fill:none;stroke:#404faa;stroke-width:1;stroke-linecap:round;stroke-linejoin:round;stroke-miterlimit:10;stroke-dasharray:none;stroke-opacity:1"
         id="path236" />
      <path
         d="m 209.023,124.513 c 0,0 3.376,-1.363 7.726,-0.649 4.35,0.715 2.468,3.701 2.468,3.701"
         style="fill:none;stroke:#404faa;stroke-width:1;stroke-linecap:round;stroke-linejoin:round;stroke-miterlimit:10;stroke-dasharray:none;stroke-opacity:1"
         id="path238" />
      <path
         d="m 224.802,121.042 c 0,0 5.404,8.553 14.9,9.77 8.52,1.092 10.08,-8.62 10.08,-8.62"
         style="fill:none;stroke:#404faa;stroke-width:1;stroke-linecap:round;stroke-linejoin:round;stroke-miterlimit:10;stroke-dasharray:none;stroke-opacity:1"
         id="path240" />
      <path
         d="m 326.219,123.93 12.075,0.865 c 1.385,0.151 2.636,0.898 3.424,2.047 l 18.653,27.149"
         style="fill:none;stroke:#404faa;stroke-width:1;stroke-linecap:round;stroke-linejoin:round;stroke-miterlimit:10;stroke-dasharray:none;stroke-opacity:1"
         id="path242" />
      <path
         d="m 326.933,126.981 c 0,0 7.272,-0.325 10.259,1.493 2.987,1.819 -2.208,3.376 -2.208,3.376"
         style="fill:none;stroke:#404faa;stroke-width:1;stroke-linecap:round;stroke-linejoin:round;stroke-miterlimit:10;stroke-dasharray:none;stroke-opacity:1"
         id="path244" />
      <path
         d="m 335.114,133.993 4.805,-0.844"
         style="fill:none;stroke:#404faa;stroke-width:1;stroke-linecap:round;stroke-linejoin:round;stroke-miterlimit:10;stroke-dasharray:none;stroke-opacity:1"
         id="path246" />
      <path
         d="m 335.114,136.395 4.805,-0.259"
         style="fill:none;stroke:#404faa;stroke-width:1;stroke-linecap:round;stroke-linejoin:round;stroke-miterlimit:10;stroke-dasharray:none;stroke-opacity:1"
         id="path248" />
      <path
         d="m 335.114,138.961 3.004,0.941"
         style="fill:none;stroke:#404faa;stroke-width:1;stroke-linecap:round;stroke-linejoin:round;stroke-miterlimit:10;stroke-dasharray:none;stroke-opacity:1"
         id="path250" />
      <path
         d="m 342.84,155.354 c 0,0 4.74,-0.324 10.649,4.157"
         style="fill:none;stroke:#404faa;stroke-width:1;stroke-linecap:round;stroke-linejoin:round;stroke-miterlimit:10;stroke-dasharray:none;stroke-opacity:1"
         id="path252" />
      <path
         d="m 344.675,131.145 c 0,0 -3.358,8.238 -0.454,14.925 2.905,6.688 12.254,2.251 12.254,2.251"
         style="fill:none;stroke:#404faa;stroke-width:1;stroke-linecap:round;stroke-linejoin:round;stroke-miterlimit:10;stroke-dasharray:none;stroke-opacity:1"
         id="path254" />
      <path
         d="m 257.001,193.727 -11.359,5.195"
         style="fill:none;stroke:#4f5bb3;stroke-width:1;stroke-linecap:round;stroke-linejoin:round;stroke-miterlimit:10;stroke-dasharray:none;stroke-opacity:1"
         id="path256" />
      <path
         d="m 314.986,192.539 -7.791,-3.097"
         style="fill:none;stroke:#4f5bb3;stroke-width:1;stroke-linecap:round;stroke-linejoin:round;stroke-miterlimit:10;stroke-dasharray:none;stroke-opacity:1"
         id="path258" />
      <path
         d="m 328.962,150.924 c 0,0 3.165,1.168 2.733,4.027 0,0 2.575,-0.327 3.987,2.157 1.412,2.484 0.487,3.945 0.487,3.945 0,0 3.019,1.216 2.776,3.7"
         style="fill:none;stroke:#4f5bb3;stroke-width:1;stroke-linecap:round;stroke-linejoin:round;stroke-miterlimit:10;stroke-dasharray:none;stroke-opacity:1"
         id="path260" />
      <path
         d="m 233.807,143.979 c 0,0 2.814,-1.86 4.864,0.18 0,0 1.26,-2.269 4.097,-1.937 2.838,0.331 3.469,1.941 3.469,1.941 0,0 2.767,-1.714 4.626,-0.048"
         style="fill:none;stroke:#4f5bb3;stroke-width:1;stroke-linecap:round;stroke-linejoin:round;stroke-miterlimit:10;stroke-dasharray:none;stroke-opacity:1"
         id="path262" />
      <path
         d="m 233.558,171.332 c 0,-6.771 -5.49,-12.272 -12.272,-12.272 -0.563,0 -1.116,0.041 -1.649,0.113 -1.69,6.689 -3.534,14.628 -5.009,22.465 1.916,1.249 4.2,1.965 6.658,1.965 6.782,0 12.272,-5.49 12.272,-12.271"
         style="fill:#5d66b9;fill-opacity:1;fill-rule:nonzero;stroke:none;stroke-width:0.1"
         id="path264" />
      <path
         d="m 316.818,199.112 c -0.061,-0.01 -0.133,-0.01 -0.194,-0.01 -6.772,0 -12.262,5.491 -12.262,12.262 0,6.126 4.487,11.196 10.346,12.118 2.254,-8.318 2.336,-18.315 2.11,-24.37"
         style="fill:#9c8acd;fill-opacity:1;fill-rule:nonzero;stroke:none;stroke-width:0.1"
         id="path266" />
      <path
         d="m 297.622,240.946 c 0,-6.775 -5.492,-12.267 -12.268,-12.267 -6.776,0 -12.268,5.492 -12.268,12.267 0,6.776 5.492,12.269 12.268,12.269 6.776,0 12.268,-5.493 12.268,-12.269"
         style="fill:#5d66b9;fill-opacity:1;fill-rule:nonzero;stroke:none;stroke-width:0.1"
         id="path268" />
      <path
         d="m 237.307,224.936 v -21.07 h -21.081 v 14.31 c 1.803,2.1 4.19,4.374 7.007,6.76 h 14.074"
         style="fill:#5d66b9;fill-opacity:1;fill-rule:nonzero;stroke:none;stroke-width:0.1"
         id="path270" />
      <path
         d="m 340.358,169.908 h -19.78 v 21.081 h 0.123 l 10.52,-6.565 c 5.347,-3.34 8.523,-8.769 9.137,-14.516"
         style="fill:#5d66b9;fill-opacity:1;fill-rule:nonzero;stroke:none;stroke-width:0.1"
         id="path272" />
      <path
         d="m 257.078,148.53 h -5.04 v 21.07 h 11.073 l 0.256,-1.362 c 1.414,-7.559 -1.239,-14.791 -6.289,-19.708"
         style="fill:#9c8acd;fill-opacity:1;fill-rule:nonzero;stroke:none;stroke-width:0.1"
         id="path274" />
      <path
         d="m 286.897,206.027 c -8.298,-5.06 -16.779,-8.871 -22.218,-11.104 l -1.025,28.989 23.243,-17.885"
         style="fill:#9c8acd;fill-opacity:1;fill-rule:nonzero;stroke:none;stroke-width:0.1"
         id="path276" />
      <path
         d="m 318.334,157.124 -10.346,-5.009 c -5.767,2.96 -11.882,6.597 -17.055,10.817 l -0.553,15.704 27.954,-21.512"
         style="fill:#5d66b9;fill-opacity:1;fill-rule:nonzero;stroke:none;stroke-width:0.1"
         id="path278" />
      <path
         d="m 184.217,206.093 26.501,2.376 c 3.834,0.343 7.55,1.503 10.9,3.4 l 120.703,68.362 c 5.416,3.084 7.23,10.019 4.036,15.363 l -2.893,4.834 -2.089,3.489 c -3.111,5.207 -9.81,6.959 -15.07,3.949 L 207.887,239.525 c -3.047,-1.759 -5.722,-4.095 -7.873,-6.879 l -17.737,-22.955 c -0.553,-0.711 -0.59,-1.576 -0.274,-2.269 0.352,-0.81 1.173,-1.411 2.214,-1.329"
         style="fill:#9c8acd;fill-opacity:1;fill-rule:nonzero;stroke:none;stroke-width:0.1"
         id="path280" />
      <path
         d="m 204.348,235.217 c 0,0 9.544,-7.727 11.882,-24.543"
         style="fill:none;stroke:#4f5bb3;stroke-width:1;stroke-linecap:round;stroke-linejoin:round;stroke-miterlimit:10;stroke-dasharray:none;stroke-opacity:1"
         id="path282" />
      <path
         d="m 188.01,215.312 c 3.767,-3.066 3.41,-7.675 3.41,-7.675"
         style="fill:none;stroke:#4f5bb3;stroke-width:1;stroke-linecap:round;stroke-linejoin:round;stroke-miterlimit:10;stroke-dasharray:none;stroke-opacity:1"
         id="path284" />
      <path
         d="m 316.921,299.691 13.972,-22.238"
         style="fill:none;stroke:#4f5bb3;stroke-width:1;stroke-linecap:round;stroke-linejoin:round;stroke-miterlimit:10;stroke-dasharray:none;stroke-opacity:1"
         id="path286" />
      <path
         d="m 219.608,217.917 c 74.925,41.164 115.555,66.191 115.555,66.191 2.878,1.411 4.068,4.887 2.658,7.766 l -2.885,5.89"
         style="fill:none;stroke:#c0b0de;stroke-width:1;stroke-linecap:round;stroke-linejoin:round;stroke-miterlimit:10;stroke-dasharray:none;stroke-opacity:1"
         id="path288" />
      <path
         d="m 193.67,210.052 18.228,2.743"
         style="fill:none;stroke:#c0b0de;stroke-width:1;stroke-linecap:round;stroke-linejoin:round;stroke-miterlimit:10;stroke-dasharray:none;stroke-opacity:1"
         id="path290" />
      <path
         d="m 257.524,325.792 c -11.788,3.913 -19.223,-9.346 -10.996,-18.653 4.633,-5.241 22.153,-12.355 22.153,-12.355 l 9.35,21.297 c 0,0 -10.627,6.432 -20.507,9.711"
         style="fill:#4f5bb3;fill-opacity:1;fill-rule:nonzero;stroke:none;stroke-width:0.1"
         id="path292" />
      <path
         d="m 298.185,294.142 c -0.758,-11.524 -6.535,-33.527 -8.01,-39.007 -0.164,-1.854 -0.759,-7.991 -1.731,-9.998 -1.158,-2.387 -3.586,-2.387 -3.586,-2.387 -1.383,-1.762 -2.909,-1.342 -2.909,-1.342 -1.669,-1.342 -3.657,-0.204 -3.657,-0.204 0,0 -0.318,-1.035 -2.202,-1.353 -1.885,-0.307 -3.35,0.83 -3.35,0.83 0,0 1.158,1.035 2.172,2.694 1.024,1.66 1.28,7.56 1.28,7.56 0,0 -3.974,-4.968 -5.234,-4.456 -1.25,0.523 1.055,5.071 2.519,7.867 0.872,1.68 2.767,3.206 4.149,4.159 l 2.858,33.548 -11.001,4.548 8.123,18.5 c 0,0 10.797,-4.733 16.748,-10.346 1.619,-1.527 2.878,-3.125 3.462,-4.712 0.451,-1.219 0.533,-3.289 0.369,-5.901"
         style="fill:#f57ca0;fill-opacity:1;fill-rule:nonzero;stroke:none;stroke-width:0.1"
         id="path294" />
      <path
         d="m 281.865,292.419 6.566,3.246"
         style="fill:none;stroke:#4f5bb3;stroke-width:1;stroke-linecap:round;stroke-linejoin:round;stroke-miterlimit:10;stroke-dasharray:none;stroke-opacity:1"
         id="path296" />
      <path
         d="m 277.621,258.502 12.647,-3.015 0.973,3.7 -13.264,3.489 -0.356,-4.174"
         style="fill:#4f5bb3;fill-opacity:1;fill-rule:nonzero;stroke:none;stroke-width:0.1"
         id="path298" />
      <path
         d="m 287.475,258.588 c 0,-1.171 -0.949,-2.121 -2.121,-2.121 -1.172,0 -2.121,0.95 -2.121,2.121 0,1.172 0.949,2.121 2.121,2.121 1.172,0 2.121,-0.949 2.121,-2.121"
         style="fill:#ffffff;fill-opacity:1;fill-rule:nonzero;stroke:none;stroke-width:0.1"
         id="path300" />
      <path
         d="m 287.475,258.588 c 0,-1.171 -0.949,-2.121 -2.121,-2.121 -1.172,0 -2.121,0.95 -2.121,2.121 0,1.172 0.949,2.121 2.121,2.121 1.172,0 2.121,-0.949 2.121,-2.121 z"
         style="fill:none;stroke:#ffffff;stroke-width:1;stroke-linecap:butt;stroke-linejoin:miter;stroke-miterlimit:10;stroke-dasharray:none;stroke-opacity:1"
         id="path302" />
      <path
         d="m 298.185,294.142 c -0.41,-0.092 -0.83,-0.143 -1.26,-0.143 -3.134,0 -5.685,2.551 -5.685,5.695 0,2.213 1.27,4.129 3.114,5.061 1.619,-1.527 2.878,-3.125 3.462,-4.712 0.451,-1.219 0.533,-3.289 0.369,-5.901"
         style="fill:#f46889;fill-opacity:1;fill-rule:nonzero;stroke:none;stroke-width:0.1"
         id="path304" />
      <path
         d="m 221.741,277.063 c 0,0 4.606,-3.904 7.309,-9.831"
         style="fill:none;stroke:#4f5bb3;stroke-width:1;stroke-linecap:round;stroke-linejoin:round;stroke-miterlimit:10;stroke-dasharray:none;stroke-opacity:1"
         id="path306" />
      <path
         d="m 188.405,293.282 c -0.748,-1.158 -2.151,-2.868 -2.346,-5.03 -0.021,-0.174 -0.031,-0.348 -0.031,-0.532 l -3.451,-1.582 c 0,0 -0.083,3.456 1.546,6.161 0.502,0.839 1.137,1.638 1.936,2.294 3.247,2.673 3.145,-0.072 2.346,-1.311"
         style="fill:#f57ca0;fill-opacity:1;fill-rule:nonzero;stroke:none;stroke-width:0.1"
         id="path308" />
      <path
         d="m 216.334,320.627 c 0,0 2.14,0.768 2.085,3.183"
         style="fill:none;stroke:#30449f;stroke-width:0.75;stroke-linecap:round;stroke-linejoin:miter;stroke-miterlimit:10;stroke-dasharray:none;stroke-opacity:1"
         id="path310" />
      <path
         d="m 214.694,329.757 c 0.57,-0.988 0.417,-2.143 -0.343,-2.581 -0.759,-0.439 -1.836,0.006 -2.406,0.993 -0.57,0.987 -0.416,2.143 0.343,2.581 0.759,0.438 1.836,-0.007 2.406,-0.993"
         style="fill:#30449f;fill-opacity:1;fill-rule:nonzero;stroke:none;stroke-width:0.1"
         id="path312" />
      <path
         d="m 212.977,332.734 -2.446,-0.766 c -0.376,-0.117 -0.775,0.092 -0.892,0.467 v 0 c -0.118,0.375 0.091,0.775 0.466,0.892 l 2.447,0.766 c 0.375,0.117 0.775,-0.092 0.892,-0.467 v 0 c 0.117,-0.375 -0.092,-0.775 -0.467,-0.892"
         style="fill:#30449f;fill-opacity:1;fill-rule:nonzero;stroke:none;stroke-width:0.1"
         id="path314" />
    </g>
  </g>
</svg>
