<?xml version="1.0" encoding="UTF-8" standalone="no"?>
<!-- Created with Inkscape (http://www.inkscape.org/) -->

<svg
   width="189.24896mm"
   height="54.413353mm"
   viewBox="0 0 189.24896 54.413353"
   version="1.1"
   id="svg1420"
   xmlns:inkscape="http://www.inkscape.org/namespaces/inkscape"
   xmlns:sodipodi="http://sodipodi.sourceforge.net/DTD/sodipodi-0.dtd"
   xmlns="http://www.w3.org/2000/svg"
   xmlns:svg="http://www.w3.org/2000/svg">
  <sodipodi:namedview
     id="namedview1422"
     pagecolor="#ffffff"
     bordercolor="#000000"
     borderopacity="0.25"
     inkscape:showpageshadow="2"
     inkscape:pageopacity="0.0"
     inkscape:pagecheckerboard="0"
     inkscape:deskcolor="#d1d1d1"
     inkscape:document-units="mm"
     showgrid="false" />
  <defs
     id="defs1417" />
  <g
     inkscape:label="Vrstva 1"
     inkscape:groupmode="layer"
     id="layer1"
     transform="translate(-13.860006,-106.26004)">
    <rect
       style="fill:#5e0fbf;fill-opacity:1;stroke-width:0.264583;"
       id="rect2963"
       width="189.24896"
       height="54.413357"
       x="13.860005"
       y="106.26004"
       rx="8" />
    <g
       id="g3027"
       transform="translate(-1.3122729,0.55002367)">
      <path
         d="m 43.361816,143.07669 c 3.019776,0 4.910663,-1.12889 6.688662,-2.96333 l -2.455331,-2.90689 c -1.326444,1.32644 -2.483554,2.06022 -4.063997,2.06022 -2.624665,0 -4.656663,-2.39889 -4.656663,-6.32177 v -0.0847 c 0,-3.83822 1.947331,-6.29355 4.600218,-6.29355 1.608666,0 2.850443,0.762 4.035775,1.97555 l 2.455331,-3.16088 c -1.523998,-1.55222 -3.414886,-2.62467 -6.349995,-2.62467 -5.221107,0 -8.946437,4.064 -8.946437,10.04711 v 0.25399 c 0,6.03956 3.499553,10.01889 8.692437,10.01889 z"
         style="font-stretch:condensed;font-size:28.2222px;font-family:'Gotham Narrow';-inkscape-font-specification:'Gotham Narrow Condensed';fill:#ffffff;fill-opacity:1;stroke-width:0.264583"
         id="path1428" />
      <path
         d="m 60.464404,143.13313 c 5.221107,0 8.946438,-4.17689 8.946438,-10.07533 v -0.33866 c 0,-5.89844 -3.668886,-10.01888 -8.918216,-10.01888 -5.221107,0 -8.946437,4.14866 -8.946437,10.07532 v 0.33867 c 0,5.89844 3.668886,10.01888 8.918215,10.01888 z m 0.02822,-3.78177 c -2.737553,0 -4.741329,-2.45534 -4.741329,-6.35 v -0.19755 c 0,-3.89467 1.947332,-6.32178 4.713107,-6.32178 2.737554,0 4.713108,2.45533 4.713108,6.35 v 0.19755 c 0,3.89467 -1.947332,6.32178 -4.684886,6.32178 z"
         style="font-stretch:condensed;font-size:28.2222px;font-family:'Gotham Narrow';-inkscape-font-specification:'Gotham Narrow Condensed';fill:#ffffff;fill-opacity:1;stroke-width:0.264583"
         id="path1430" />
      <path
         d="m 72.656382,142.79446 h 3.97933 v -12.55888 l 4.628441,8.09978 h 0.08467 l 4.656663,-8.15622 v 12.61532 h 4.007552 v -19.75554 h -4.317996 l -4.346219,8.01511 -4.402663,-8.01511 h -4.289775 z"
         style="font-stretch:condensed;font-size:28.2222px;font-family:'Gotham Narrow';-inkscape-font-specification:'Gotham Narrow Condensed';fill:#ffffff;fill-opacity:1;stroke-width:0.264583"
         id="path1432" />
      <path
         d="m 94.105232,142.79446 h 4.092219 v -19.75554 h -4.092219 z"
         style="font-stretch:condensed;font-size:28.2222px;font-family:'Gotham Narrow';-inkscape-font-specification:'Gotham Narrow Condensed';fill:#ffffff;fill-opacity:1;stroke-width:0.264583"
         id="path1434" />
      <path
         d="m 110.2765,143.07669 c 3.01977,0 4.91066,-1.12889 6.68866,-2.96333 l -2.45533,-2.90689 c -1.32645,1.32644 -2.48356,2.06022 -4.064,2.06022 -2.62466,0 -4.65666,-2.39889 -4.65666,-6.32177 v -0.0847 c 0,-3.83822 1.94733,-6.29355 4.60022,-6.29355 1.60866,0 2.85044,0.762 4.03577,1.97555 l 2.45533,-3.16088 c -1.524,-1.55222 -3.41488,-2.62467 -6.34999,-2.62467 -5.22111,0 -8.94644,4.064 -8.94644,10.04711 v 0.25399 c 0,6.03956 3.49955,10.01889 8.69244,10.01889 z"
         style="font-stretch:condensed;font-size:28.2222px;font-family:'Gotham Narrow';-inkscape-font-specification:'Gotham Narrow Condensed';fill:#ffffff;fill-opacity:1;stroke-width:0.264583"
         id="path1436" />
      <path
         d="m 119.75914,142.79446 h 4.09222 v -6.4911 h 2.56822 l 3.64067,6.4911 h 4.68488 l -4.20511,-7.33777 c 2.17311,-0.95955 3.66889,-2.85044 3.66889,-5.84199 v -0.11289 c 0,-1.94733 -0.59267,-3.49956 -1.66511,-4.572 -1.24178,-1.24178 -3.07622,-1.89089 -5.36222,-1.89089 h -7.42244 z m 4.09222,-10.10354 v -5.95489 h 2.93511 c 2.08844,0 3.302,0.98778 3.302,2.96333 v 0.0282 c 0,1.77799 -1.12889,2.96333 -3.21733,2.96333 z"
         style="font-stretch:condensed;font-size:28.2222px;font-family:'Gotham Narrow';-inkscape-font-specification:'Gotham Narrow Condensed';fill:#ffffff;fill-opacity:1;stroke-width:0.264583"
         id="path1438" />
      <path
         d="m 135.95866,142.79446 h 4.12044 l 1.43933,-4.28977 h 6.80155 l 1.46755,4.28977 h 4.23333 l -7.08377,-19.86842 h -3.89466 z m 6.80155,-7.90221 2.17311,-6.43466 2.14488,6.43466 z"
         style="font-stretch:condensed;font-size:28.2222px;font-family:'Gotham Narrow';-inkscape-font-specification:'Gotham Narrow Condensed';fill:#ffffff;fill-opacity:1;stroke-width:0.264583"
         id="path1440" />
      <path
         d="m 156.47619,142.79446 h 4.09222 v -7.81755 h 7.59177 v -3.75355 h -7.59177 v -4.43088 h 8.63599 v -3.75356 h -12.72821 z"
         style="font-stretch:condensed;font-size:28.2222px;font-family:'Gotham Narrow';-inkscape-font-specification:'Gotham Narrow Condensed';fill:#ffffff;fill-opacity:1;stroke-width:0.264583"
         id="path1442" />
      <path
         d="m 175.89304,142.79446 h 4.06399 V 126.8207 h 4.96711 v -3.78178 h -13.99821 v 3.78178 h 4.96711 z"
         style="font-stretch:condensed;font-size:28.2222px;font-family:'Gotham Narrow';-inkscape-font-specification:'Gotham Narrow Condensed';fill:#ffffff;fill-opacity:1;stroke-width:0.264583"
         id="path1444" />
    </g>
  </g>
</svg>
